<svg xmlns="http://www.w3.org/2000/svg" width="16" height="17" viewBox="0 0 16 17" fill="none">
  <path d="M8.66699 7.16797L13.589 12.1133C14.1377 12.66 14.1377 13.5453 13.589 14.0913C13.3254 14.3535 12.9688 14.5006 12.597 14.5006C12.2252 14.5006 11.8686 14.3535 11.605 14.0913L6.66699 9.16797" stroke="#A36952" stroke-linecap="round" stroke-linejoin="round"/>
  <path d="M4.19556 10.6965L2.47156 8.97253C2.34658 8.84752 2.27637 8.67798 2.27637 8.5012C2.27637 8.32443 2.34658 8.15489 2.47156 8.02987L7.52889 2.97253C7.65391 2.84755 7.82345 2.77734 8.00023 2.77734C8.177 2.77734 8.34654 2.84755 8.47156 2.97253L10.1956 4.69653C10.3205 4.82155 10.3907 4.99109 10.3907 5.16787C10.3907 5.34464 10.3205 5.51418 10.1956 5.6392L5.13822 10.6965C5.01321 10.8215 4.84367 10.8917 4.66689 10.8917C4.49012 10.8917 4.32058 10.8215 4.19556 10.6965V10.6965V10.6965Z" stroke="#A36952" stroke-linecap="round" stroke-linejoin="round"/>
</svg>
