<svg xmlns="http://www.w3.org/2000/svg" width="16" height="17" viewBox="0 0 16 17" fill="none">
  <path d="M2 14.4998H4.66667L13.3333 5.83312C13.6753 5.47712 13.864 5.00125 13.8591 4.50765C13.8541 4.01405 13.6558 3.54207 13.3068 3.19302C12.9577 2.84398 12.4857 2.64569 11.9921 2.64072C11.4985 2.63575 11.0227 2.8245 10.6667 3.16645L2 11.8331V14.4998Z" stroke="#66D9E8" stroke-linecap="round" stroke-linejoin="round"/>
  <path d="M9.66699 4.16797L12.3337 6.83464" stroke="#66D9E8" stroke-linecap="round" stroke-linejoin="round"/>
  <path d="M8 5.83333L4.66667 2.5L2 5.16667L5.33333 8.5" stroke="#66D9E8" stroke-linecap="round" stroke-linejoin="round"/>
  <path d="M4.66699 5.83203L3.66699 6.83203" stroke="#66D9E8" stroke-linecap="round" stroke-linejoin="round"/>
  <path d="M10.6667 8.5L14 11.8333L11.3333 14.5L8 11.1667" stroke="#66D9E8" stroke-linecap="round" stroke-linejoin="round"/>
  <path d="M10.667 11.832L9.66699 12.832" stroke="#66D9E8" stroke-linecap="round" stroke-linejoin="round"/>
</svg>
