<svg xmlns="http://www.w3.org/2000/svg" width="16" height="17" viewBox="0 0 16 17" fill="none">
<path d="M2.66634 7.83203C3.01996 7.83203 3.3591 7.97251 3.60915 8.22256C3.8592 8.4726 3.99967 8.81174 3.99967 9.16536V9.83203H11.9997V9.16536C11.9997 8.81174 12.1402 8.4726 12.3902 8.22256C12.6402 7.97251 12.9794 7.83203 13.333 7.83203C13.6866 7.83203 14.0258 7.97251 14.2758 8.22256C14.5259 8.4726 14.6663 8.81174 14.6663 9.16536V12.4987C14.6663 12.6755 14.5961 12.8451 14.4711 12.9701C14.3461 13.0951 14.1765 13.1654 13.9997 13.1654H1.99967C1.82286 13.1654 1.65329 13.0951 1.52827 12.9701C1.40325 12.8451 1.33301 12.6755 1.33301 12.4987V9.16536C1.33301 8.81174 1.47348 8.4726 1.72353 8.22256C1.97358 7.97251 2.31272 7.83203 2.66634 7.83203V7.83203Z" stroke="#CC5DE8" stroke-linecap="round" stroke-linejoin="round"/>
<path d="M2.66699 7.83203V5.83203C2.66699 5.3016 2.87771 4.79289 3.25278 4.41782C3.62785 4.04275 4.13656 3.83203 4.66699 3.83203H11.3337C11.8641 3.83203 12.3728 4.04275 12.7479 4.41782C13.1229 4.79289 13.3337 5.3016 13.3337 5.83203V7.83203" stroke="#CC5DE8" stroke-linecap="round" stroke-linejoin="round"/>
<path d="M8 3.83203V9.83203" stroke="#CC5DE8" stroke-linecap="round" stroke-linejoin="round"/>
</svg>
