<svg xmlns="http://www.w3.org/2000/svg" width="16" height="17" viewBox="0 0 16 17" fill="none">
  <path d="M12.6667 5.16797H3.33333C2.97971 5.16797 2.64057 5.30844 2.39052 5.55849C2.14048 5.80854 2 6.14768 2 6.5013V12.5013C2 12.8549 2.14048 13.1941 2.39052 13.4441C2.64057 13.6942 2.97971 13.8346 3.33333 13.8346H12.6667C13.0203 13.8346 13.3594 13.6942 13.6095 13.4441C13.8595 13.1941 14 12.8549 14 12.5013V6.5013C14 6.14768 13.8595 5.80854 13.6095 5.55849C13.3594 5.30844 13.0203 5.16797 12.6667 5.16797V5.16797Z" stroke="#20C997" stroke-linecap="round" stroke-linejoin="round"/>
  <path d="M10.6663 2.5L7.99967 5.16667L5.33301 2.5" stroke="#20C997" stroke-linecap="round" stroke-linejoin="round"/>
</svg>
