<svg width="25" height="25" viewBox="0 0 25 25" fill="none" xmlns="http://www.w3.org/2000/svg">
<rect width="25" height="25" rx="2" fill="#E2E0FF"/>
<path d="M14.2778 4.5V8.05556C14.2778 8.2913 14.3715 8.5174 14.5382 8.68409C14.7049 8.85079 14.931 8.94444 15.1667 8.94444H18.7223M14.2778 4.5H8.05561C7.58411 4.5 7.13193 4.6873 6.79853 5.0207C6.46513 5.3541 6.27783 5.80628 6.27783 6.27778V18.7222C6.27783 19.1937 6.46513 19.6459 6.79853 19.9793C7.13193 20.3127 7.58411 20.5 8.05561 20.5H16.9445C17.416 20.5 17.8682 20.3127 18.2016 19.9793C18.535 19.6459 18.7223 19.1937 18.7223 18.7222L18.7223 8.94444M14.2778 4.5L18.7223 8.94444" stroke="#3818D9" stroke-linecap="round" stroke-linejoin="round"/>
</svg>
