<svg width="25" height="25" viewBox="0 0 25 25" fill="none" xmlns="http://www.w3.org/2000/svg">
<rect width="25" height="25" rx="2" fill="#F1F3F5"/>
<path d="M6.56567 14.0422L9.36513 11.2428L17.0636 18.9413M19.1632 6.34375H6.56567V18.9413H19.1632V6.34375ZM13.9142 11.2428C14.3783 11.2428 14.8233 11.0585 15.1514 10.7303C15.4796 10.4022 15.6639 9.95717 15.6639 9.49313C15.6639 9.0291 15.4796 8.58406 15.1514 8.25594C14.8233 7.92782 14.3783 7.74348 13.9142 7.74348C13.4502 7.74348 13.0052 7.92782 12.677 8.25594C12.3489 8.58406 12.1646 9.0291 12.1646 9.49313C12.1646 9.95717 12.3489 10.4022 12.677 10.7303C13.0052 11.0585 13.4502 11.2428 13.9142 11.2428Z" stroke="#858B91" stroke-width="0.833333" stroke-linecap="round" stroke-linejoin="round"/>
<path d="M5.25351 19.2818L19.7846 6.71805" stroke="#F1F3F5" stroke-width="1.7"/>
<path d="M5.21542 18.2823L19.7465 5.71854" stroke="#858B91"/>
</svg>
