<svg width="16" height="16" viewBox="0 0 16 16" fill="none" xmlns="http://www.w3.org/2000/svg">
<path d="M9.33325 2V4.66667C9.33325 4.84348 9.40349 5.01305 9.52851 5.13807C9.65354 5.2631 9.82311 5.33333 9.99992 5.33333H12.6666" stroke="#3818D9" stroke-linecap="round" stroke-linejoin="round"/>
<path d="M11.3333 14H4.66659C4.31296 14 3.97382 13.8595 3.72378 13.6095C3.47373 13.3594 3.33325 13.0203 3.33325 12.6667V3.33333C3.33325 2.97971 3.47373 2.64057 3.72378 2.39052C3.97382 2.14048 4.31296 2 4.66659 2H9.33325L12.6666 5.33333V12.6667C12.6666 13.0203 12.5261 13.3594 12.2761 13.6095C12.026 13.8595 11.6869 14 11.3333 14Z" stroke="#3818D9" stroke-linecap="round" stroke-linejoin="round"/>
<path d="M6 6H6.66667" stroke="#3818D9" stroke-linecap="round" stroke-linejoin="round"/>
<path d="M6 8.66669H10" stroke="#3818D9" stroke-linecap="round" stroke-linejoin="round"/>
<path d="M6 11.3333H10" stroke="#3818D9" stroke-linecap="round" stroke-linejoin="round"/>
</svg>
