<svg width="24" height="24" viewBox="0 0 24 24" fill="none" xmlns="http://www.w3.org/2000/svg">
<rect width="24" height="24" rx="12" fill="#F15757"/>
<path d="M12 13.5V13.505" stroke="white" stroke-linecap="round" stroke-linejoin="round"/>
<path d="M12 10.5V11.5" stroke="white" stroke-linecap="round" stroke-linejoin="round"/>
<path d="M8.49961 15.5003H15.4996C15.6628 15.4991 15.8232 15.4581 15.9668 15.3807C16.1104 15.3033 16.233 15.192 16.3237 15.0564C16.4144 14.9208 16.4706 14.765 16.4873 14.6027C16.504 14.4404 16.4808 14.2765 16.4196 14.1253L12.8696 8.00025C12.7831 7.84395 12.6564 7.71367 12.5025 7.62295C12.3486 7.53222 12.1732 7.48438 11.9946 7.48438C11.816 7.48438 11.6406 7.53222 11.4867 7.62295C11.3329 7.71367 11.2061 7.84395 11.1196 8.00025L7.56961 14.1253C7.50958 14.273 7.48577 14.433 7.50018 14.5919C7.51459 14.7508 7.56679 14.9039 7.65243 15.0385C7.73807 15.173 7.85466 15.2852 7.99247 15.3655C8.13028 15.4458 8.2853 15.492 8.44461 15.5003" stroke="white" stroke-linecap="round" stroke-linejoin="round"/>
</svg>
