<svg width="20" height="20" viewBox="0 0 20 20" fill="none" xmlns="http://www.w3.org/2000/svg">
<g clip-path="url(#clip0_1_1316)">
<path d="M5.32833 3.70332C5.485 3.20998 6.18167 3.20998 6.33833 3.70332C7 7.41665 7.58333 7.99998 11.2967 8.66165C11.79 8.81832 11.79 9.51498 11.2967 9.67165C7.58333 10.3333 7 10.9167 6.33833 14.63C6.18167 15.1233 5.485 15.1233 5.32833 14.63C4.66667 10.9167 4.08333 10.3333 0.37 9.67165C-0.123333 9.51498 -0.123333 8.81832 0.37 8.66165C4.08333 7.99998 4.66667 7.41665 5.32833 3.70332ZM12.5917 11.9042C12.6139 11.8355 12.6574 11.7756 12.7158 11.7332C12.7742 11.6908 12.8445 11.6679 12.9167 11.6679C12.9889 11.6679 13.0592 11.6908 13.1176 11.7332C13.176 11.7756 13.2194 11.8355 13.2417 11.9042C13.6667 14.2917 14.0417 14.6667 16.4292 15.0925C16.7458 15.1925 16.7458 15.6408 16.4292 15.7408C14.0417 16.1667 13.6667 16.5417 13.2408 18.9292C13.219 18.998 13.1759 19.0582 13.1176 19.1009C13.0593 19.1436 12.9889 19.1666 12.9167 19.1666C12.8444 19.1666 12.774 19.1436 12.7158 19.1009C12.6575 19.0582 12.6143 18.998 12.5925 18.9292C12.1667 16.5417 11.7917 16.1667 9.40417 15.7408C9.33528 15.719 9.27512 15.6759 9.23243 15.6176C9.18973 15.5593 9.16671 15.4889 9.16671 15.4167C9.16671 15.3444 9.18973 15.274 9.23243 15.2157C9.27512 15.1574 9.33528 15.1143 9.40417 15.0925C11.7917 14.6667 12.1667 14.2917 12.5925 11.9042H12.5917ZM14.6392 1.09749C14.6634 1.02074 14.7114 0.953708 14.7763 0.906124C14.8412 0.858541 14.9195 0.832886 15 0.832886C15.0805 0.832886 15.1588 0.858541 15.2237 0.906124C15.2886 0.953708 15.3366 1.02074 15.3608 1.09749C15.8333 3.74999 16.25 4.16665 18.9025 4.63915C18.9792 4.66334 19.0463 4.71137 19.0939 4.77626C19.1414 4.84115 19.1671 4.91952 19.1671 4.99999C19.1671 5.08045 19.1414 5.15882 19.0939 5.22371C19.0463 5.2886 18.9792 5.33663 18.9025 5.36082C16.25 5.83332 15.8333 6.24998 15.3608 8.90248C15.3366 8.97923 15.2886 9.04626 15.2237 9.09385C15.1588 9.14143 15.0805 9.16708 15 9.16708C14.9195 9.16708 14.8412 9.14143 14.7763 9.09385C14.7114 9.04626 14.6634 8.97923 14.6392 8.90248C14.1667 6.24998 13.75 5.83332 11.0975 5.36082C11.0208 5.33663 10.9537 5.2886 10.9061 5.22371C10.8586 5.15882 10.8329 5.08045 10.8329 4.99999C10.8329 4.91952 10.8586 4.84115 10.9061 4.77626C10.9537 4.71137 11.0208 4.66334 11.0975 4.63915C13.75 4.16665 14.1667 3.74999 14.6392 1.09749Z" fill="#3818D9"/>
</g>
<defs>
<clipPath id="clip0_1_1316">
<rect width="20" height="20" fill="white"/>
</clipPath>
</defs>
</svg>
