<svg width="16" height="17" viewBox="0 0 16 17" fill="none" xmlns="http://www.w3.org/2000/svg">
<path d="M2.33329 3.1665H13.6666C13.8434 3.1665 14.013 3.23674 14.138 3.36177C14.2631 3.48679 14.3333 3.65636 14.3333 3.83317V13.1665C14.3333 13.3433 14.2631 13.5129 14.138 13.6379C14.013 13.7629 13.8434 13.8332 13.6666 13.8332H2.33329C2.15648 13.8332 1.98691 13.7629 1.86189 13.6379C1.73686 13.5129 1.66663 13.3433 1.66663 13.1665V3.83317C1.66663 3.65636 1.73686 3.48679 1.86189 3.36177C1.98691 3.23674 2.15648 3.1665 2.33329 3.1665Z" stroke="#868E96" stroke-linecap="round" stroke-linejoin="round"/>
<path d="M4.83337 6.5C4.96598 6.5 5.09316 6.44732 5.18693 6.35355C5.2807 6.25978 5.33337 6.13261 5.33337 6C5.33337 5.86739 5.2807 5.74021 5.18693 5.64645C5.09316 5.55268 4.96598 5.5 4.83337 5.5C4.70077 5.5 4.57359 5.55268 4.47982 5.64645C4.38605 5.74021 4.33337 5.86739 4.33337 6C4.33337 6.13261 4.38605 6.25978 4.47982 6.35355C4.57359 6.44732 4.70077 6.5 4.83337 6.5Z" stroke="#868E96" stroke-linecap="round" stroke-linejoin="round"/>
<path d="M4.99996 8.5L6.66663 9.83333L8.66663 7.5L14.3333 11.8333V13.1667C14.3333 13.3435 14.2631 13.513 14.138 13.6381C14.013 13.7631 13.8434 13.8333 13.6666 13.8333H2.33329C2.15648 13.8333 1.98691 13.7631 1.86189 13.6381C1.73686 13.513 1.66663 13.3435 1.66663 13.1667V11.8333L4.99996 8.5Z" stroke="#868E96" stroke-linecap="round" stroke-linejoin="round"/>
</svg>
