<svg width="16" height="17" viewBox="0 0 16 17" fill="none" xmlns="http://www.w3.org/2000/svg">
<path d="M8.00004 15.1668C11.682 15.1668 14.6667 12.1822 14.6667 8.50016C14.6667 4.81816 11.682 1.8335 8.00004 1.8335C4.31804 1.8335 1.33337 4.81816 1.33337 8.50016C1.33337 12.1822 4.31804 15.1668 8.00004 15.1668Z" stroke="#868E96" stroke-linecap="round" stroke-linejoin="round"/>
<path d="M8.00004 11.1668C8.70728 11.1668 9.38556 10.8859 9.88566 10.3858C10.3858 9.88568 10.6667 9.20741 10.6667 8.50016C10.6667 7.79292 10.3858 7.11464 9.88566 6.61454C9.38556 6.11445 8.70728 5.8335 8.00004 5.8335C7.2928 5.8335 6.61452 6.11445 6.11442 6.61454C5.61433 7.11464 5.33337 7.79292 5.33337 8.50016C5.33337 9.20741 5.61433 9.88568 6.11442 10.3858C6.61452 10.8859 7.2928 11.1668 8.00004 11.1668Z" stroke="#868E96" stroke-linecap="round" stroke-linejoin="round"/>
</svg>
