<svg xmlns="http://www.w3.org/2000/svg" width="20" height="20" viewBox="0 0 20 20" fill="none">
  <path d="M10 17.5C10.9849 17.5 11.9602 17.306 12.8701 16.9291C13.7801 16.5522 14.6069 15.9997 15.3033 15.3033C15.9997 14.6069 16.5522 13.7801 16.9291 12.8701C17.306 11.9602 17.5 10.9849 17.5 10C17.5 9.01509 17.306 8.03982 16.9291 7.12987C16.5522 6.21993 15.9997 5.39314 15.3033 4.6967C14.6069 4.00026 13.7801 3.44781 12.8701 3.0709C11.9602 2.69399 10.9849 2.5 10 2.5C8.01088 2.5 6.10322 3.29018 4.6967 4.6967C3.29018 6.10322 2.5 8.01088 2.5 10C2.5 11.9891 3.29018 13.8968 4.6967 15.3033C6.10322 16.7098 8.01088 17.5 10 17.5Z" stroke="#3818D9" stroke-width="1.25" stroke-linecap="round" stroke-linejoin="round"/>
  <path d="M10 14.1641V14.1724" stroke="#3818D9" stroke-width="1.25" stroke-linecap="round" stroke-linejoin="round"/>
  <path d="M9.99967 11.2451C9.98433 10.9746 10.0573 10.7064 10.2076 10.4809C10.3579 10.2555 10.5774 10.085 10.833 9.99509C11.1462 9.87531 11.4274 9.68445 11.6543 9.43755C11.8812 9.19065 12.0478 8.89444 12.1408 8.57225C12.2338 8.25006 12.2507 7.91067 12.1903 7.58081C12.1298 7.25096 11.9936 6.93963 11.7924 6.67135C11.5912 6.40307 11.3305 6.18516 11.0308 6.03477C10.731 5.88439 10.4005 5.80563 10.0651 5.8047C9.72976 5.80377 9.39878 5.88069 9.09821 6.02941C8.79764 6.17814 8.5357 6.3946 8.33301 6.66176" stroke="#3818D9" stroke-width="1.25" stroke-linecap="round" stroke-linejoin="round"/>
</svg>
