<svg xmlns="http://www.w3.org/2000/svg" width="16" height="16" viewBox="0 0 16 16" fill="none">
<path d="M7.33301 4.5H11.333C12.2171 4.5 13.0649 4.85119 13.69 5.47631C14.3152 6.10143 14.6663 6.94928 14.6663 7.83333C14.6663 8.71739 14.3152 9.56523 13.69 10.1904C13.0649 10.8155 12.2171 11.1667 11.333 11.1667H7.33301" stroke="#495057" stroke-linecap="round" stroke-linejoin="round"/>
<circle cx="11.2998" cy="7.7998" r="2" stroke="#495057"/>
<path d="M7.33333 11.1667H5.33333C4.44928 11.1667 3.60143 10.8155 2.97631 10.1904C2.35119 9.56523 2 8.71739 2 7.83333C2 6.94928 2.35119 6.10143 2.97631 5.47631C3.60143 4.85119 4.44928 4.5 5.33333 4.5H7.33333" stroke="#495057" stroke-linecap="round" stroke-linejoin="round"/>
</svg>
