<svg width="16" height="16" viewBox="0 0 16 16" fill="none" xmlns="http://www.w3.org/2000/svg">
<path d="M12.0007 5.33203H6.66732C6.3137 5.33203 5.97456 5.47251 5.72451 5.72256C5.47446 5.9726 5.33398 6.31174 5.33398 6.66536V11.9987C5.33398 12.3523 5.47446 12.6915 5.72451 12.9415C5.97456 13.1916 6.3137 13.332 6.66732 13.332H12.0007C12.3543 13.332 12.6934 13.1916 12.9435 12.9415C13.1935 12.6915 13.334 12.3523 13.334 11.9987V6.66536C13.334 6.31174 13.1935 5.9726 12.9435 5.72256C12.6934 5.47251 12.3543 5.33203 12.0007 5.33203Z" stroke="#212529" stroke-linecap="round" stroke-linejoin="round"/>
<path d="M10.666 5.33464V4.0013C10.666 3.64768 10.5255 3.30854 10.2755 3.05849C10.0254 2.80844 9.6863 2.66797 9.33268 2.66797H3.99935C3.64573 2.66797 3.30659 2.80844 3.05654 3.05849C2.80649 3.30854 2.66602 3.64768 2.66602 4.0013V9.33464C2.66602 9.68826 2.80649 10.0274 3.05654 10.2774C3.30659 10.5275 3.64573 10.668 3.99935 10.668H5.33268" stroke="#212529" stroke-linecap="round" stroke-linejoin="round"/>
</svg>
