<svg xmlns="http://www.w3.org/2000/svg" width="20" height="20" viewBox="0 0 20 20" fill="none">
  <path fill-rule="evenodd" clip-rule="evenodd" d="M12.8701 16.9291C11.9602 17.306 10.9849 17.5 10 17.5C8.01088 17.5 6.10322 16.7098 4.6967 15.3033C3.29018 13.8968 2.5 11.9891 2.5 10C2.5 8.01088 3.29018 6.10322 4.6967 4.6967C6.10322 3.29018 8.01088 2.5 10 2.5C10.9849 2.5 11.9602 2.69399 12.8701 3.0709C13.7801 3.44781 14.6069 4.00026 15.3033 4.6967C15.9997 5.39314 16.5522 6.21993 16.9291 7.12987C17.306 8.03982 17.5 9.01509 17.5 10C17.5 10.9849 17.306 11.9602 16.9291 12.8701C16.5522 13.7801 15.9997 14.6069 15.3033 15.3033C14.6069 15.9997 13.7801 16.5522 12.8701 16.9291ZM12.9419 8.77788C13.186 8.5338 13.186 8.13807 12.9419 7.894C12.6979 7.64992 12.3021 7.64992 12.0581 7.894L9.16667 10.7854L7.94194 9.56066C7.69786 9.31658 7.30214 9.31658 7.05806 9.56066C6.81398 9.80474 6.81398 10.2005 7.05806 10.4445L8.72472 12.1112C8.9688 12.3553 9.36453 12.3553 9.60861 12.1112L12.9419 8.77788Z" fill="#20C997"/>
</svg>
