<svg xmlns="http://www.w3.org/2000/svg" width="16" height="16" viewBox="0 0 16 16" fill="none">
  <path d="M8.00033 8.66536C7.63214 8.66536 7.33366 8.36689 7.33366 7.9987C7.33366 7.63051 7.63214 7.33203 8.00033 7.33203C8.36852 7.33203 8.66699 7.63051 8.66699 7.9987C8.66699 8.36689 8.36852 8.66536 8.00033 8.66536Z" stroke="#ADB5BD" stroke-linecap="round" stroke-linejoin="round"/>
  <path d="M3.33333 8.66536C2.96514 8.66536 2.66667 8.36689 2.66667 7.9987C2.66667 7.63051 2.96514 7.33203 3.33333 7.33203C3.70152 7.33203 4 7.63051 4 7.9987C4 8.36689 3.70152 8.66536 3.33333 8.66536Z" stroke="#ADB5BD" stroke-linecap="round" stroke-linejoin="round"/>
  <path d="M12.6663 8.66536C12.2982 8.66536 11.9997 8.36689 11.9997 7.9987C11.9997 7.63051 12.2982 7.33203 12.6663 7.33203C13.0345 7.33203 13.333 7.63051 13.333 7.9987C13.333 8.36689 13.0345 8.66536 12.6663 8.66536Z" stroke="#ADB5BD" stroke-linecap="round" stroke-linejoin="round"/>
</svg>
