<svg width="16" height="16" viewBox="0 0 16 16" fill="none" xmlns="http://www.w3.org/2000/svg">
<path d="M8.0013 9.33366C8.35492 9.33366 8.69406 9.19318 8.94411 8.94313C9.19416 8.69309 9.33464 8.35395 9.33464 8.00033C9.33464 7.6467 9.19416 7.30757 8.94411 7.05752C8.69406 6.80747 8.35492 6.66699 8.0013 6.66699C7.64768 6.66699 7.30854 6.80747 7.05849 7.05752C6.80844 7.30757 6.66797 7.6467 6.66797 8.00033C6.66797 8.35395 6.80844 8.69309 7.05849 8.94313C7.30854 9.19318 7.64768 9.33366 8.0013 9.33366Z" stroke="#868E96" stroke-linecap="round" stroke-linejoin="round"/>
<path d="M14.6654 7.99967C12.8874 11.111 10.6654 12.6663 7.9987 12.6663C5.33203 12.6663 3.11003 11.111 1.33203 7.99967C3.11003 4.88834 5.33203 3.33301 7.9987 3.33301C10.6654 3.33301 12.8874 4.88834 14.6654 7.99967Z" stroke="#868E96" stroke-linecap="round" stroke-linejoin="round"/>
</svg>
