<svg width="20" height="20" viewBox="0 0 20 20" fill="none" xmlns="http://www.w3.org/2000/svg">
<path d="M7.4987 3.33301H9.9987L11.6654 4.99967H15.832C16.2741 4.99967 16.698 5.17527 17.0105 5.48783C17.3231 5.80039 17.4987 6.22431 17.4987 6.66634V12.4997C17.4987 12.9417 17.3231 13.3656 17.0105 13.6782C16.698 13.9907 16.2741 14.1663 15.832 14.1663H7.4987C7.05667 14.1663 6.63275 13.9907 6.32019 13.6782C6.00763 13.3656 5.83203 12.9417 5.83203 12.4997V4.99967C5.83203 4.55765 6.00763 4.13372 6.32019 3.82116C6.63275 3.5086 7.05667 3.33301 7.4987 3.33301Z" stroke="#495057" stroke-width="1.25" stroke-linecap="round" stroke-linejoin="round"/>
<path d="M14.1667 14.167V15.8337C14.1667 16.2757 13.9911 16.6996 13.6785 17.0122C13.366 17.3247 12.942 17.5003 12.5 17.5003H4.16667C3.72464 17.5003 3.30072 17.3247 2.98816 17.0122C2.67559 16.6996 2.5 16.2757 2.5 15.8337V8.33366C2.5 7.89163 2.67559 7.46771 2.98816 7.15515C3.30072 6.84259 3.72464 6.66699 4.16667 6.66699H5.83333" stroke="#495057" stroke-width="1.25" stroke-linecap="round" stroke-linejoin="round"/>
</svg>
