<svg xmlns="http://www.w3.org/2000/svg" width="16" height="17" viewBox="0 0 16 17" fill="none">
  <path d="M8.00066 15.1673C8.87629 15.1684 9.74351 14.9965 10.5525 14.6614C11.3615 14.3263 12.0963 13.8346 12.7147 13.2147C13.3346 12.5963 13.8263 11.8615 14.1614 11.0525C14.4965 10.2435 14.6684 9.37629 14.6673 8.50066C14.6684 7.62501 14.4965 6.75778 14.1614 5.9488C13.8263 5.13981 13.3346 4.40503 12.7147 3.78666C12.0963 3.16668 11.3615 2.67501 10.5525 2.33991C9.74353 2.00481 8.8763 1.83287 8.00066 1.83399C7.12501 1.83287 6.25778 2.00481 5.4488 2.33991C4.63981 2.67501 3.90503 3.16668 3.28666 3.78666C2.66668 4.40503 2.17501 5.13981 1.83991 5.9488C1.50481 6.75778 1.33287 7.62501 1.33399 8.50066C1.33287 9.3763 1.50481 10.2435 1.83991 11.0525C2.17501 11.8615 2.66668 12.5963 3.28666 13.2147C3.90503 13.8346 4.63981 14.3263 5.4488 14.6614C6.25778 14.9965 7.12501 15.1684 8.00066 15.1673Z" stroke="#F1BC02" stroke-linecap="round" stroke-linejoin="round"/>
  <path fill-rule="evenodd" clip-rule="evenodd" d="M7.99935 4.16602C8.22036 4.16602 8.43232 4.25381 8.5886 4.41009C8.74488 4.56637 8.83268 4.77834 8.83268 4.99935C8.83268 5.22036 8.74488 5.43232 8.5886 5.5886C8.43232 5.74488 8.22036 5.83268 7.99935 5.83268C7.77834 5.83268 7.56637 5.74488 7.41009 5.5886C7.25381 5.43232 7.16602 5.22036 7.16602 4.99935C7.16602 4.77834 7.25381 4.56637 7.41009 4.41009C7.56637 4.25381 7.77834 4.16602 7.99935 4.16602Z" fill="#F1BC02"/>
  <path d="M8.16667 11.8327V7.16602H7.5" stroke="#F1BC02" stroke-linecap="round" stroke-linejoin="round"/>
  <path d="M7 11.834H9.33333" stroke="#F1BC02" stroke-linecap="round" stroke-linejoin="round"/>
</svg>
