<svg width="21" height="21" viewBox="0 0 21 21" fill="none" xmlns="http://www.w3.org/2000/svg">
<path d="M8.83301 12.1615C9.10457 12.4387 9.42871 12.6589 9.78645 12.8092C10.1442 12.9595 10.5283 13.037 10.9163 13.037C11.3044 13.037 11.6885 12.9595 12.0462 12.8092C12.404 12.6589 12.7281 12.4387 12.9997 12.1615L16.333 8.8282C16.8708 8.27265 17.1687 7.52797 17.1624 6.75478C17.1561 5.98158 16.8462 5.24184 16.2995 4.69509C15.7527 4.14834 15.013 3.83841 14.2398 3.83213C13.4666 3.82585 12.7219 4.12374 12.1663 4.66154L11.7497 5.0782" stroke="#3818D9" stroke-width="1.25" stroke-linecap="round" stroke-linejoin="round"/>
<path d="M12.1664 8.83565C11.8947 8.55869 11.5706 8.33868 11.2128 8.18849C10.8551 8.0383 10.4711 7.96094 10.0831 7.96094C9.69512 7.96094 9.31105 8.0383 8.95333 8.18849C8.59561 8.33868 8.27143 8.55869 7.99975 8.83565L4.66642 12.169C4.12862 12.7245 3.83073 13.4692 3.83701 14.2424C3.84329 15.0156 4.15322 15.7553 4.69997 16.3021C5.24672 16.8488 5.98647 17.1588 6.75966 17.1651C7.53285 17.1713 8.27753 16.8734 8.83308 16.3356L9.24975 15.919" stroke="#3818D9" stroke-width="1.25" stroke-linecap="round" stroke-linejoin="round"/>
</svg>
