<svg width="16" height="16" fill="#495057" viewBox="0 0 24 24" xmlns="http://www.w3.org/2000/svg">
 <path d="M8 12a1 1 0 0 0 1 1h6a1 1 0 0 0 0-2H9a1 1 0 0 0-1 1Z"></path>
 <path d="M9 16H7.21A4.13 4.13 0 0 1 3 12.37 4 4 0 0 1 7 8h2a1 1 0 0 0 0-2H7.21a6.15 6.15 0 0 0-6.16 5.21A6 6 0 0 0 7 18h2a1 1 0 1 0 0-2Z"></path>
 <path d="M23 11.242a6.16 6.16 0 0 0-6.24-5.24h-1.51c-.81 0-1.25.45-1.25 1a1 1 0 0 0 1 1h1.79a4.13 4.13 0 0 1 4.21 3.63 4.002 4.002 0 0 1-4 4.37h-2a1 1 0 0 0 0 2h2a6 6 0 0 0 6-6.76Z"></path>
</svg>