<svg width="106" height="30" viewBox="0 0 106 30" fill="none" xmlns="http://www.w3.org/2000/svg">
<path d="M5.08993 0.358643H0V29.4821H17.258V24.781H5.08993V0.358643Z" fill="#3818D9"/>
<path d="M18.693 29.4821H23.5443V9.80087H18.693V29.4821Z" fill="#3818D9"/>
<path d="M25.0573 23.5061C25.0573 27.3706 28.1589 30.0001 33.0501 30.0001C37.9014 30.0001 41.2814 27.53 41.2814 23.5459C41.2814 20.518 39.6113 19.0041 36.3108 18.2471L32.7717 17.4104C31.1016 17.012 30.2267 16.2949 30.2267 15.1794C30.2267 13.7053 31.3402 12.8288 33.2489 12.8288C35.1178 12.8288 36.2313 13.9045 36.271 15.5778H40.8838C40.844 11.7531 37.8616 9.20326 33.4477 9.20326C28.9145 9.20326 25.6537 11.514 25.6537 15.3786C25.6537 18.526 27.3636 20.1993 30.9027 20.9961L34.4418 21.8327C36.1915 22.2312 36.7084 22.9483 36.7084 23.9443C36.7084 25.3786 35.4757 26.2949 33.2091 26.2949C30.9823 26.2949 29.7098 25.2192 29.67 23.5061H25.0573Z" fill="#3818D9"/>
<path d="M49.6675 29.4821V13.8646H53.4849V9.80087H49.6675V3.66542H44.8162V9.80087H41.0385V13.8646H44.8162V29.4821H49.6675Z" fill="#3818D9"/>
<path d="M60.1593 29.4821V19.0439C60.1593 15.4184 60.1195 12.6694 59.8411 10.9164L67.1977 29.4821H71.89L79.2863 10.8766C79.0079 12.9483 79.0079 14.6614 79.0079 20.518V29.4821H83.9388V0.358643H78.9284L69.5438 23.5459L60.1593 0.358643H55.2284V29.4821H60.1593Z" fill="#3818D9"/>
<path d="M96.4564 30.0001C101.586 30.0001 105.165 27.4104 106 23.1076H101.507C100.95 24.9802 99.2002 26.016 96.5359 26.016C93.3149 26.016 91.4857 24.263 91.1279 20.7969L105.92 20.757V19.2829C105.92 13.1475 102.183 9.20326 96.2973 9.20326C90.5314 9.20326 86.5151 13.4662 86.5151 19.6415C86.5151 25.7371 90.6109 30.0001 96.4564 30.0001ZM96.3371 13.1873C99.2399 13.1873 101.109 14.9802 101.109 17.6893H91.2472C91.7243 14.7411 93.474 13.1873 96.3371 13.1873Z" fill="#3818D9"/>
</svg>
