<svg width="16" height="16" viewBox="0 0 16 16" fill="none" xmlns="http://www.w3.org/2000/svg">
<path d="M2 2L14 14" stroke="#868E96" stroke-linecap="round" stroke-linejoin="round"/>
<path d="M7.0551 7.05762C6.80491 7.30754 6.66425 7.64661 6.66406 8.00024C6.66388 8.35387 6.80417 8.6931 7.0541 8.94328C7.30402 9.19347 7.64309 9.33413 7.99672 9.33432C8.35035 9.33451 8.68958 9.19421 8.93976 8.94428" stroke="#868E96" stroke-linecap="round" stroke-linejoin="round"/>
<path d="M11.57 11.5671C10.4827 12.3004 9.29336 12.6671 7.9987 12.6671C5.33203 12.6671 3.11003 11.1118 1.33203 8.00043C2.2447 6.40376 3.27403 5.2171 4.42003 4.44043" stroke="#868E96" stroke-linecap="round" stroke-linejoin="round"/>
<path d="M6.24219 3.57638C6.8138 3.41286 7.40565 3.33094 8.00019 3.33305C10.6669 3.33305 12.8889 4.88838 14.6669 7.99971C14.1482 8.90705 13.5922 9.68238 12.9982 10.325" stroke="#868E96" stroke-linecap="round" stroke-linejoin="round"/>
</svg>
