<svg width="18" height="14" viewBox="0 0 18 14" fill="none" xmlns="http://www.w3.org/2000/svg">
<path d="M8.9987 8.66634C9.44073 8.66634 9.86465 8.49075 10.1772 8.17819C10.4898 7.86562 10.6654 7.4417 10.6654 6.99967C10.6654 6.55765 10.4898 6.13372 10.1772 5.82116C9.86465 5.5086 9.44073 5.33301 8.9987 5.33301C8.55667 5.33301 8.13275 5.5086 7.82019 5.82116C7.50763 6.13372 7.33203 6.55765 7.33203 6.99967C7.33203 7.4417 7.50763 7.86562 7.82019 8.17819C8.13275 8.49075 8.55667 8.66634 8.9987 8.66634Z" stroke="#3818D9" stroke-width="1.25" stroke-linecap="round" stroke-linejoin="round"/>
<path d="M17.3346 7.00033C15.1121 10.8895 12.3346 12.8337 9.0013 12.8337C5.66797 12.8337 2.89047 10.8895 0.667969 7.00033C2.89047 3.11116 5.66797 1.16699 9.0013 1.16699C12.3346 1.16699 15.1121 3.11116 17.3346 7.00033Z" stroke="#3818D9" stroke-width="1.25" stroke-linecap="round" stroke-linejoin="round"/>
</svg>
