<svg width="16" height="16" viewBox="0 0 16 16" fill="none" xmlns="http://www.w3.org/2000/svg">
<g clip-path="url(#clip0_762_4481)">
<path d="M7.99967 14.6668C11.6817 14.6668 14.6663 11.6822 14.6663 8.00016C14.6663 4.31816 11.6817 1.3335 7.99967 1.3335C4.31767 1.3335 1.33301 4.31816 1.33301 8.00016C1.33301 11.6822 4.31767 14.6668 7.99967 14.6668Z" stroke="#495057" stroke-linecap="round" stroke-linejoin="round"/>
<path d="M7.99967 10.6668C8.70692 10.6668 9.3852 10.3859 9.88529 9.88578C10.3854 9.38568 10.6663 8.70741 10.6663 8.00016C10.6663 7.29292 10.3854 6.61464 9.88529 6.11454C9.3852 5.61445 8.70692 5.3335 7.99967 5.3335C7.29243 5.3335 6.61415 5.61445 6.11406 6.11454C5.61396 6.61464 5.33301 7.29292 5.33301 8.00016C5.33301 8.70741 5.61396 9.38568 6.11406 9.88578C6.61415 10.3859 7.29243 10.6668 7.99967 10.6668Z" stroke="#495057" stroke-linecap="round" stroke-linejoin="round"/>
</g>
<defs>
<clipPath id="clip0_762_4481">
<rect width="16" height="16" fill="white"/>
</clipPath>
</defs>
</svg>
