<?xml version="1.0" encoding="utf-8"?>
<svg width="24" height="24" fill="none" stroke="#3818d9" stroke-linecap="round" stroke-linejoin="round" stroke-width="1.5" viewBox="0 0 24 24" xmlns="http://www.w3.org/2000/svg">
  <g style="" transform="matrix(0.735696, 0, 0, 0.735696, 0.792913, 0.792913)">
    <path d="M 19.5 3 L 4.5 3 C 3.672 3 3 3.672 3 4.5 L 3 19.5 C 3 20.328 3.672 21 4.5 21 L 19.5 21 C 20.328 21 21 20.328 21 19.5 L 21 4.5 C 21 3.672 20.328 3 19.5 3 Z"/>
    <path d="M 10.5 6.5 L 6.5 6.5 L 6.5 10.5 L 10.5 10.5 L 10.5 6.5 Z"/>
    <path d="M 10.5 13.5 L 6.5 13.5 L 6.5 17.5 L 10.5 17.5 L 10.5 13.5 Z"/>
    <path d="M 13.5 14 L 17.5 14"/>
    <path d="M 13.5 17.5 L 17.5 17.5"/>
    <path d="M 13.5 6.5 L 17.5 6.5"/>
    <path d="M 13.5 10 L 17.5 10"/>
  </g>
</svg>