<svg xmlns="http://www.w3.org/2000/svg" width="17" height="16" viewBox="0 0 17 16" fill="none">
  <path d="M3 4.66406H13.6667" stroke="#FF7474" stroke-width="1.25" stroke-linecap="round" stroke-linejoin="round"/>
  <path d="M3.66602 4.66406L4.33268 12.6641C4.33268 13.0177 4.47316 13.3568 4.72321 13.6069C4.97325 13.8569 5.31239 13.9974 5.66602 13.9974H10.9993C11.353 13.9974 11.6921 13.8569 11.9422 13.6069C12.1922 13.3568 12.3327 13.0177 12.3327 12.6641L12.9993 4.66406" stroke="#FF7474" stroke-width="1.25" stroke-linecap="round" stroke-linejoin="round"/>
  <path d="M6.33301 4.66667V2.66667C6.33301 2.48986 6.40325 2.32029 6.52827 2.19526C6.65329 2.07024 6.82286 2 6.99967 2H9.66634C9.84315 2 10.0127 2.07024 10.1377 2.19526C10.2628 2.32029 10.333 2.48986 10.333 2.66667V4.66667" stroke="#FF7474" stroke-width="1.25" stroke-linecap="round" stroke-linejoin="round"/>
  <path d="M9.66667 8L7 10.6667M7 8L9.66667 10.6667" stroke="#FF7474" stroke-width="1.25" stroke-linecap="round" stroke-linejoin="round"/>
</svg>
