<svg width="14" height="16" viewBox="0 0 14 16" fill="none" xmlns="http://www.w3.org/2000/svg">
<path d="M1 4H2.33333H13" stroke="#ADB5BD" stroke-width="2" stroke-linecap="round" stroke-linejoin="round"/>
<path d="M11.6663 4.00016V13.3335C11.6663 13.6871 11.5259 14.0263 11.2758 14.2763C11.0258 14.5264 10.6866 14.6668 10.333 14.6668H3.66634C3.31272 14.6668 2.97358 14.5264 2.72353 14.2763C2.47348 14.0263 2.33301 13.6871 2.33301 13.3335V4.00016M4.33301 4.00016V2.66683C4.33301 2.31321 4.47348 1.97407 4.72353 1.72402C4.97358 1.47397 5.31272 1.3335 5.66634 1.3335H8.33301C8.68663 1.3335 9.02577 1.47397 9.27582 1.72402C9.52586 1.97407 9.66634 2.31321 9.66634 2.66683V4.00016" stroke="#ADB5BD" stroke-width="2" stroke-linecap="round" stroke-linejoin="round"/>
</svg>
