<svg xmlns="http://www.w3.org/2000/svg" width="20" height="20" viewBox="0 0 20 20" fill="none">
  <path fill-rule="evenodd" clip-rule="evenodd" d="M12.8701 16.9291C11.9602 17.306 10.9849 17.5 10 17.5C8.01088 17.5 6.10322 16.7098 4.6967 15.3033C3.29018 13.8968 2.5 11.9891 2.5 10C2.5 8.01088 3.29018 6.10322 4.6967 4.6967C6.10322 3.29018 8.01088 2.5 10 2.5C10.9849 2.5 11.9602 2.69399 12.8701 3.0709C13.7801 3.44781 14.6069 4.00026 15.3033 4.6967C15.9997 5.39314 16.5522 6.21993 16.9291 7.12987C17.306 8.03982 17.5 9.01509 17.5 10C17.5 10.9849 17.306 11.9602 16.9291 12.8701C16.5522 13.7801 15.9997 14.6069 15.3033 15.3033C14.6069 15.9997 13.7801 16.5522 12.8701 16.9291ZM7.5 9.375C7.15482 9.375 6.875 9.65482 6.875 10C6.875 10.3452 7.15482 10.625 7.5 10.625H12.5C12.8452 10.625 13.125 10.3452 13.125 10C13.125 9.65482 12.8452 9.375 12.5 9.375H7.5Z" fill="#DCDFE5"/>
</svg>
